# File created by Blade
# Date/Time:  Fri Jan 16 19:32:17 2015
# Frame Rate: 120.000 fps
#------------------------------------------------------
:FULLY-SPECIFIED
:DEGREES
816
root 19.961853 35.481702 -20.684147 9.664918 10.483271 0.072676
Spine -21.282130 -10.785381 -0.363625
Head 19.102596 -2.946540 6.571653
LeftShoulder -6.657830 7.887200 0.382783
LeftArm -99.225395 49.732498 -167.561696
LeftForeArm 63.434537 0.000000 115.168272
LeftHand 15.241950 -0.000000 -14.130792
LeftHandThumb1 -26.253704 0.000000 33.147579
RightShoulder -11.562577 2.065904 -21.467101
RightArm -358.036725 49.707780 -359.087275
RightForeArm -32.096811 0.000000 2.732821
RightHand -3.138803 -0.000000 0.494588
RightHandThumb1 -24.326973 -0.000000 -32.862282
LeftUpLeg -1.669860 0.347914 0.613768
LeftLeg -6.425828 -0.000000 0.000000
LeftFoot -19.648580 27.486983 -12.071677
LeftToeBase 25.918713 -0.000000 -0.000000
RightUpLeg 0.600299 -16.463194 -1.686294
RightLeg -4.195464 -0.000000 0.000000
RightFoot -22.442702 -24.775626 19.672469
RightToeBase 24.447059 -0.000000 -0.000000
817
root 19.963076 35.481369 -20.688898 9.668422 10.490473 0.079186
Spine -21.277009 -10.793512 -0.318211
Head 19.144599 -2.917917 6.589517
LeftShoulder -6.665004 7.908680 0.400551
LeftArm -99.291229 49.771621 -167.534422
LeftForeArm 63.472231 -0.000000 115.181236
LeftHand 15.229783 0.000000 -14.243792
LeftHandThumb1 -26.253704 0.000000 33.147579
RightShoulder -11.550059 2.029314 -21.422396
RightArm -358.089925 49.712442 -359.083347
RightForeArm -32.130713 -0.000000 2.737173
RightHand -3.206129 -0.000000 0.624258
RightHandThumb1 -24.326973 -0.000000 -32.862282
LeftUpLeg -1.681654 0.323961 0.606292
LeftLeg -6.423691 -0.000000 0.000000
LeftFoot -19.643971 27.501836 -12.080734
LeftToeBase 25.919354 -0.000000 -0.000000
RightUpLeg 0.590880 -16.472357 -1.693120
RightLeg -4.192772 -0.000000 0.000000
RightFoot -22.442515 -24.775092 19.659826
RightToeBase 24.452643 -0.000000 -0.000000
818
root 19.963093 35.481198 -20.694123 9.668981 10.500120 0.084373
Spine -21.260839 -10.807984 -0.279996
Head 19.180557 -2.902756 6.613370
LeftShoulder -6.673554 7.903597 0.416370
LeftArm -99.345420 49.784016 -167.504734
LeftForeArm 63.365037 -0.000000 115.189697
LeftHand 15.239742 0.000000 -14.323656
LeftHandThumb1 -26.253704 0.000000 33.147579
RightShoulder -11.545702 2.011312 -21.377437
RightArm -358.106945 49.678005 -359.054869
RightForeArm -32.053757 -0.000000 2.718074
RightHand -3.205894 -0.000000 0.650018
RightHandThumb1 -24.326973 -0.000000 -32.862282
LeftUpLeg -1.698863 0.319953 0.600914
LeftLeg -6.407124 -0.000000 0.000000
LeftFoot -19.642369 27.498835 -12.050806
LeftToeBase 25.991322 -0.000000 -0.000000
RightUpLeg 0.583661 -16.487828 -1.698100
RightLeg -4.188412 -0.000000 0.000000
RightFoot -22.445436 -24.736792 19.670341
RightToeBase 24.425164 -0.000000 -0.000000
819
root 19.962738 35.481287 -20.698857 9.666313 10.507421 0.086778
Spine -21.245912 -10.827141 -0.237485
Head 19.213353 -2.874923 6.628785
LeftShoulder -6.646373 7.894217 0.457032
LeftArm -99.362714 49.773839 -167.437600
LeftForeArm 63.420303 -0.000000 115.230820
LeftHand 15.137758 -0.000000 -14.401267
LeftHandThumb1 -26.253704 0.000000 33.147579
RightShoulder -11.549324 1.956879 -21.343032
RightArm -358.082033 49.696015 -358.975273
RightForeArm -32.034717 -0.000000 2.681472
RightHand -3.129668 -0.000000 0.634552
RightHandThumb1 -24.326973 -0.000000 -32.862282
LeftUpLeg -1.705959 0.316662 0.597998
LeftLeg -6.406657 -0.000000 0.000000
LeftFoot -19.633054 27.498456 -12.049410
LeftToeBase 25.960348 -0.000000 -0.000000
RightUpLeg 0.577739 -16.492328 -1.700200
RightLeg -4.181925 -0.000000 0.000000
RightFoot -22.445585 -24.743267 19.655459
RightToeBase 24.450433 -0.000000 -0.000000
